<?xml version="1.0" encoding="UTF-8" standalone="no"?>
<svg
   xmlns:dc="http://purl.org/dc/elements/1.1/"
   xmlns:cc="http://creativecommons.org/ns#"
   xmlns:rdf="http://www.w3.org/1999/02/22-rdf-syntax-ns#"
   xmlns:svg="http://www.w3.org/2000/svg"
   xmlns="http://www.w3.org/2000/svg"
   xmlns:sodipodi="http://sodipodi.sourceforge.net/DTD/sodipodi-0.dtd"
   xmlns:inkscape="http://www.inkscape.org/namespaces/inkscape"
   version="1.1"
   width="13.6cm"
   height="19.1cm"
   viewBox="0 0 53543.346 75196.925"
   id="svg258"
   sodipodi:docname="fume_extractor_pcb-F.SilkS.svg"
   inkscape:version="0.92.3 (2405546, 2018-03-11)">
  <metadata
     id="metadata264">
    <rdf:RDF>
      <cc:Work
         rdf:about="">
        <dc:format>image/svg+xml</dc:format>
        <dc:type
           rdf:resource="http://purl.org/dc/dcmitype/StillImage" />
        <dc:title>SVG Picture created as fume_extractor_pcb-F.SilkS.svg date 2018/08/07 14:20:58 </dc:title>
      </cc:Work>
    </rdf:RDF>
  </metadata>
  <defs
     id="defs262" />
  <sodipodi:namedview
     pagecolor="#ffffff"
     bordercolor="#666666"
     borderopacity="1"
     objecttolerance="10"
     gridtolerance="10"
     guidetolerance="10"
     inkscape:pageopacity="0"
     inkscape:pageshadow="2"
     inkscape:window-width="1440"
     inkscape:window-height="837"
     id="namedview260"
     showgrid="false"
     inkscape:zoom="4.0907694"
     inkscape:cx="150.7773"
     inkscape:cy="592.91973"
     inkscape:window-x="-8"
     inkscape:window-y="-8"
     inkscape:window-maximized="1"
     inkscape:current-layer="g256" />
  <title
     id="title2">SVG Picture created as fume_extractor_pcb-F.SilkS.svg date 2018/08/07 14:20:58 </title>
  <desc
     id="desc4">Picture generated by PCBNEW </desc>
  <g
     style="fill:#000000;fill-opacity:1;stroke:#000000;stroke-linecap:round;stroke-linejoin:round;stroke-opacity:1"
     id="g6"
     transform="translate(0,-7483.0772)" />
  <g
     style="fill:#000000;fill-opacity:0;stroke:#000000;stroke-width:-0.0003937;stroke-linecap:round;stroke-linejoin:round;stroke-opacity:1"
     id="g8"
     transform="translate(0,-7483.0772)" />
  <g
     style="fill:#000000;fill-opacity:0;stroke:#000000;stroke-width:59.05509949;stroke-linecap:round;stroke-linejoin:round;stroke-opacity:1"
     id="g256"
     transform="translate(-34850.977,-25876.437)">
    <g
       id="g2143"
       transform="translate(-8589.326,370.06567)">
      <g
         transform="translate(3.0198468e-4,2.7343161e-4)"
         id="g150"
         style="fill:#000000;fill-opacity:0;stroke:#000000;stroke-width:104.16675568;stroke-linecap:round;stroke-linejoin:round;stroke-miterlimit:4;stroke-dasharray:none;stroke-opacity:1">
        <path
           style="stroke-width:104.16675568;stroke-miterlimit:4;stroke-dasharray:none"
           inkscape:connector-curvature="0"
           id="path16"
           d="m 59825,35938 v 1024" />
        <path
           style="stroke-width:104.16675568;stroke-miterlimit:4;stroke-dasharray:none"
           inkscape:connector-curvature="0"
           id="path18"
           d="M 65613,35938 H 59825" />
        <path
           style="stroke-width:104.16675568;stroke-miterlimit:4;stroke-dasharray:none"
           inkscape:connector-curvature="0"
           id="path20"
           d="m 59825,39561 h 748" />
        <path
           style="stroke-width:104.16675568;stroke-miterlimit:4;stroke-dasharray:none"
           inkscape:connector-curvature="0"
           id="path22"
           d="m 59825,38498 v 1063" />
        <path
           style="stroke-width:104.16675568;stroke-miterlimit:4;stroke-dasharray:none"
           inkscape:connector-curvature="0"
           id="path24"
           d="M 65613,39561 V 35938" />
        <path
           style="stroke-width:104.16675568;stroke-miterlimit:4;stroke-dasharray:none"
           inkscape:connector-curvature="0"
           id="path26"
           d="m 62148,39561 h 3465" />
        <path
           style="stroke-width:104.16675568;stroke-miterlimit:4;stroke-dasharray:none"
           inkscape:connector-curvature="0"
           id="path32"
           d="m 61142,41135 v -175" />
        <path
           style="stroke-width:104.16675568;stroke-miterlimit:4;stroke-dasharray:none"
           inkscape:connector-curvature="0"
           id="path34"
           d="m 61142,42039 v -175" />
        <path
           style="stroke-width:104.16675568;stroke-miterlimit:4;stroke-dasharray:none"
           inkscape:connector-curvature="0"
           id="path36"
           d="m 58685,41135 v -175" />
        <path
           style="stroke-width:104.16675568;stroke-miterlimit:4;stroke-dasharray:none"
           inkscape:connector-curvature="0"
           id="path38"
           d="m 58685,42039 v -175" />
        <path
           style="stroke-width:104.16675568;stroke-miterlimit:4;stroke-dasharray:none"
           inkscape:connector-curvature="0"
           id="path40"
           d="m 58685,40960 h 2457" />
        <path
           style="stroke-width:104.16675568;stroke-miterlimit:4;stroke-dasharray:none"
           inkscape:connector-curvature="0"
           id="path42"
           d="m 58685,42039 h 2457" />
        <path
           style="stroke-width:104.16675568;stroke-miterlimit:4;stroke-dasharray:none"
           inkscape:connector-curvature="0"
           id="path44"
           d="m 54717,40864 v 175" />
        <path
           style="stroke-width:104.16675568;stroke-miterlimit:4;stroke-dasharray:none"
           inkscape:connector-curvature="0"
           id="path46"
           d="m 54717,39960 v 175" />
        <path
           style="stroke-width:104.16675568;stroke-miterlimit:4;stroke-dasharray:none"
           inkscape:connector-curvature="0"
           id="path48"
           d="m 57174,40864 v 175" />
        <path
           style="stroke-width:104.16675568;stroke-miterlimit:4;stroke-dasharray:none"
           inkscape:connector-curvature="0"
           id="path50"
           d="m 57174,39960 v 175" />
        <path
           style="stroke-width:104.16675568;stroke-miterlimit:4;stroke-dasharray:none"
           inkscape:connector-curvature="0"
           id="path52"
           d="M 57174,41039 H 54717" />
        <path
           style="stroke-width:104.16675568;stroke-miterlimit:4;stroke-dasharray:none"
           inkscape:connector-curvature="0"
           id="path54"
           d="M 57174,39960 H 54717" />
        <path
           style="stroke-width:104.16675568;stroke-miterlimit:4;stroke-dasharray:none"
           inkscape:connector-curvature="0"
           id="path56"
           d="m 61028,44059 v 881" />
        <path
           style="stroke-width:104.16675568;stroke-miterlimit:4;stroke-dasharray:none"
           inkscape:connector-curvature="0"
           id="path58"
           d="m 60933,44059 v 881" />
        <path
           style="stroke-width:104.16675568;stroke-miterlimit:4;stroke-dasharray:none"
           inkscape:connector-curvature="0"
           id="path60"
           d="m 60981,44059 v 881" />
        <path
           style="stroke-width:104.16675568;stroke-miterlimit:4;stroke-dasharray:none"
           inkscape:connector-curvature="0"
           id="path62"
           d="m 59339,44500 h 256" />
        <path
           style="stroke-width:104.16675568;stroke-miterlimit:4;stroke-dasharray:none"
           inkscape:connector-curvature="0"
           id="path64"
           d="m 61520,44500 h -256" />
        <path
           style="stroke-width:104.16675568;stroke-miterlimit:4;stroke-dasharray:none"
           inkscape:connector-curvature="0"
           id="path66"
           d="m 59595,44059 h 1669" />
        <path
           style="stroke-width:104.16675568;stroke-miterlimit:4;stroke-dasharray:none"
           inkscape:connector-curvature="0"
           id="path68"
           d="m 59595,44940 v -881" />
        <path
           style="stroke-width:104.16675568;stroke-miterlimit:4;stroke-dasharray:none"
           inkscape:connector-curvature="0"
           id="path70"
           d="M 61264,44940 H 59595" />
        <path
           style="stroke-width:104.16675568;stroke-miterlimit:4;stroke-dasharray:none"
           inkscape:connector-curvature="0"
           id="path72"
           d="m 61264,44059 v 881" />
        <path
           style="stroke-width:104.16675568;stroke-miterlimit:4;stroke-dasharray:none"
           inkscape:connector-curvature="0"
           id="path74"
           d="m 59831,43440 v -881" />
        <path
           style="stroke-width:104.16675568;stroke-miterlimit:4;stroke-dasharray:none"
           inkscape:connector-curvature="0"
           id="path76"
           d="m 59926,43440 v -881" />
        <path
           style="stroke-width:104.16675568;stroke-miterlimit:4;stroke-dasharray:none"
           inkscape:connector-curvature="0"
           id="path78"
           d="m 59878,43440 v -881" />
        <path
           style="stroke-width:104.16675568;stroke-miterlimit:4;stroke-dasharray:none"
           inkscape:connector-curvature="0"
           id="path80"
           d="m 61520,43000 h -256" />
        <path
           style="stroke-width:104.16675568;stroke-miterlimit:4;stroke-dasharray:none"
           inkscape:connector-curvature="0"
           id="path82"
           d="m 59339,43000 h 256" />
        <path
           style="stroke-width:104.16675568;stroke-miterlimit:4;stroke-dasharray:none"
           inkscape:connector-curvature="0"
           id="path84"
           d="M 61264,43440 H 59595" />
        <path
           style="stroke-width:104.16675568;stroke-miterlimit:4;stroke-dasharray:none"
           inkscape:connector-curvature="0"
           id="path86"
           d="m 61264,42559 v 881" />
        <path
           style="stroke-width:104.16675568;stroke-miterlimit:4;stroke-dasharray:none"
           inkscape:connector-curvature="0"
           id="path88"
           d="m 59595,42559 h 1669" />
        <path
           style="stroke-width:104.16675568;stroke-miterlimit:4;stroke-dasharray:none"
           inkscape:connector-curvature="0"
           id="path90"
           d="m 59595,43440 v -881" />
        <path
           style="stroke-width:104.16675568;stroke-miterlimit:4;stroke-dasharray:none"
           inkscape:connector-curvature="0"
           id="path92"
           d="m 66203,40476 h -523" />
        <path
           style="stroke-width:104.16675568;stroke-miterlimit:4;stroke-dasharray:none"
           inkscape:connector-curvature="0"
           id="path94"
           d="m 66203,41000 v -524" />
        <path
           style="stroke-width:104.16675568;stroke-miterlimit:4;stroke-dasharray:none"
           inkscape:connector-curvature="0"
           id="path96"
           d="M 66203,41500 H 65156" />
        <path
           style="stroke-width:104.16675568;stroke-miterlimit:4;stroke-dasharray:none"
           inkscape:connector-curvature="0"
           id="path98"
           d="m 65156,41500 v 3023" />
        <path
           style="stroke-width:104.16675568;stroke-miterlimit:4;stroke-dasharray:none"
           inkscape:connector-curvature="0"
           id="path100"
           d="m 66203,41500 v 3023" />
        <path
           style="stroke-width:104.16675568;stroke-miterlimit:4;stroke-dasharray:none"
           inkscape:connector-curvature="0"
           id="path102"
           d="M 66203,44523 H 65156" />
        <path
           style="stroke-width:104.16675568;stroke-miterlimit:4;stroke-dasharray:none"
           inkscape:connector-curvature="0"
           id="path104"
           d="m 63156,45523 h 524" />
        <path
           style="stroke-width:104.16675568;stroke-miterlimit:4;stroke-dasharray:none"
           inkscape:connector-curvature="0"
           id="path106"
           d="m 63156,45000 v 523" />
        <path
           style="stroke-width:104.16675568;stroke-miterlimit:4;stroke-dasharray:none"
           inkscape:connector-curvature="0"
           id="path108"
           d="m 63156,44500 h 1047" />
        <path
           style="stroke-width:104.16675568;stroke-miterlimit:4;stroke-dasharray:none"
           inkscape:connector-curvature="0"
           id="path110"
           d="M 64203,44500 V 40476" />
        <path
           style="stroke-width:104.16675568;stroke-miterlimit:4;stroke-dasharray:none"
           inkscape:connector-curvature="0"
           id="path112"
           d="M 63156,44500 V 40476" />
        <path
           style="stroke-width:104.16675568;stroke-miterlimit:4;stroke-dasharray:none"
           inkscape:connector-curvature="0"
           id="path114"
           d="m 63156,40476 h 1047" />
        <path
           style="stroke-width:104.16675568;stroke-miterlimit:4;stroke-dasharray:none"
           inkscape:connector-curvature="0"
           id="path116"
           d="m 55451,37712 v 595" />
        <path
           style="stroke-width:104.16675568;stroke-miterlimit:4;stroke-dasharray:none"
           inkscape:connector-curvature="0"
           id="path118"
           d="m 56908,37712 v 595" />
        <path
           style="stroke-width:104.16675568;stroke-miterlimit:4;stroke-dasharray:none"
           inkscape:connector-curvature="0"
           id="path120"
           d="M 58195,38307 H 54164" />
        <path
           style="stroke-width:104.16675568;stroke-miterlimit:4;stroke-dasharray:none"
           inkscape:connector-curvature="0"
           id="path122"
           d="m 54164,37712 v 1827" />
        <path
           style="stroke-width:104.16675568;stroke-miterlimit:4;stroke-dasharray:none"
           inkscape:connector-curvature="0"
           id="path124"
           d="m 58195,37712 v 1827" />
        <path
           style="stroke-width:104.16675568;stroke-miterlimit:4;stroke-dasharray:none"
           inkscape:connector-curvature="0"
           id="path126"
           d="M 58195,39539 H 54164" />
        <path
           style="stroke-width:104.16675568;stroke-miterlimit:4;stroke-dasharray:none"
           inkscape:connector-curvature="0"
           id="path128"
           d="M 58195,37712 H 54164" />
        <path
           style="stroke-width:104.16675568;stroke-miterlimit:4;stroke-dasharray:none"
           inkscape:connector-curvature="0"
           id="path130"
           d="m 53906,41702 h 4047" />
        <path
           style="stroke-width:104.16675568;stroke-miterlimit:4;stroke-dasharray:none"
           inkscape:connector-curvature="0"
           id="path132"
           d="M 53906,45797 V 41702" />
        <path
           style="stroke-width:104.16675568;stroke-miterlimit:4;stroke-dasharray:none"
           inkscape:connector-curvature="0"
           id="path134"
           d="M 57953,45797 H 53906" />
        <path
           style="stroke-width:104.16675568;stroke-miterlimit:4;stroke-dasharray:none"
           inkscape:connector-curvature="0"
           id="path136"
           d="m 57953,41702 v 4095" />
        <path
           style="stroke-width:104.16675568;stroke-miterlimit:4;stroke-dasharray:none"
           inkscape:connector-curvature="0"
           id="path138"
           d="m 54886,41726 h 650" />
        <path
           style="stroke-width:104.16675568;stroke-miterlimit:4;stroke-dasharray:none"
           inkscape:connector-curvature="0"
           id="path140"
           d="M 54886,45773 V 41726" />
        <path
           style="stroke-width:104.16675568;stroke-miterlimit:4;stroke-dasharray:none"
           inkscape:connector-curvature="0"
           id="path142"
           d="M 56973,45773 H 54886" />
        <path
           style="stroke-width:104.16675568;stroke-miterlimit:4;stroke-dasharray:none"
           inkscape:connector-curvature="0"
           id="path144"
           d="m 56973,41726 v 4047" />
        <path
           style="stroke-width:104.16675568;stroke-miterlimit:4;stroke-dasharray:none"
           inkscape:connector-curvature="0"
           id="path146"
           d="m 56323,41726 h 650" />
        <path
           style="stroke-width:104.16675568;stroke-miterlimit:4;stroke-dasharray:none"
           inkscape:connector-curvature="0"
           id="path148"
           d="m 55536.3,41726.4 a 393.701,393.701 0 0 0 787.4,0" />
      </g>
      <path
         inkscape:connector-curvature="0"
         id="path152"
         d="m 60670.931,37593.644 v 281 l 18,56 38,38 56,18 h 37" />
      <path
         inkscape:connector-curvature="0"
         id="path154"
         d="m 60501.833,37600.01 h -244 l 131,150 h -56 l -38,18 -18,19 -19,38 v 93 l 19,38 18,19 38,18 h 112 l 38,-18 19,-19" />
      <path
         inkscape:connector-curvature="0"
         id="path156"
         d="m 59979,41640 19,19 56,19 h 38 l 56,-19 38,-38 18,-37 19,-75 v -56 l -19,-75 -18,-38 -38,-37 -56,-19 h -38 l -56,19 -19,18" />
      <path
         inkscape:connector-curvature="0"
         id="path158"
         d="m 59604,41678 h 225" />
      <path
         inkscape:connector-curvature="0"
         id="path160"
         d="m 59717,41678 v -394 l 37,56 38,38 37,18" />
      <path
         inkscape:connector-curvature="0"
         id="path162"
         d="m 56011,40640 19,19 56,19 h 37 l 57,-19 37,-38 19,-37 19,-75 v -56 l -19,-75 -19,-38 -37,-37 -57,-19 h -37 l -56,19 -19,18" />
      <path
         inkscape:connector-curvature="0"
         id="path164"
         d="m 55861,40321 -19,-18 -37,-19 h -94 l -38,19 -18,18 -19,38 v 37 l 19,57 225,225 h -244" />
      <path
         inkscape:connector-curvature="0"
         id="path166"
         d="m 60720,44678 v -394 h -94 l -56,19 -37,37 -19,38 -19,75 v 56 l 19,75 19,37 37,38 56,19 h 94" />
      <path
         inkscape:connector-curvature="0"
         id="path168"
         d="m 60120,44678 h 225" />
      <path
         inkscape:connector-curvature="0"
         id="path170"
         d="m 60233,44678 v -394 l 37,56 38,38 37,18" />
      <path
         inkscape:connector-curvature="0"
         id="path178"
         d="m 60720,43178 v -394 h -94 l -56,19 -37,37 -19,38 -19,75 v 56 l 19,75 19,37 37,38 56,19 h 94" />
      <path
         inkscape:connector-curvature="0"
         id="path180"
         d="m 60345,42821 -19,-18 -37,-19 h -94 l -37,19 -19,18 -19,38 v 37 l 19,57 225,225 h -244" />
      <path
         inkscape:connector-curvature="0"
         id="path188"
         d="m 65811,39867 v 281 l 18,56 38,38 56,18 h 38" />
      <path
         inkscape:connector-curvature="0"
         id="path190"
         d="m 65417,40260 h 225" />
      <path
         inkscape:connector-curvature="0"
         id="path192"
         d="m 65530,40260 v -393 l 37,56 38,37 37,19" />
      <path
         inkscape:connector-curvature="0"
         id="path194"
         d="m 63811,45701 v 281 l 18,57 38,37 56,19 h 38" />
      <path
         inkscape:connector-curvature="0"
         id="path196"
         d="m 63642,45739 -19,-19 -37,-19 h -94 l -37,19 -19,19 -19,37 v 38 l 19,56 225,225 h -244" />
      <path
         inkscape:connector-curvature="0"
         id="path198"
         d="m 56479,37103 v 319 l -18,37 -19,19 -38,19 h -75 l -37,-19 -19,-19 -19,-37 v -319" />
      <path
         inkscape:connector-curvature="0"
         id="path200"
         d="m 55861,37497 h 225" />
      <path
         inkscape:connector-curvature="0"
         id="path202"
         d="m 55973,37497 v -394 l 38,56 37,38 38,18" />
      <path
         inkscape:connector-curvature="0"
         id="path204"
         d="m 56229,41180.66 v 318 l -18,38 -19,19 -38,18 h -75 l -37,-18 -19,-19 -19,-38 v -318" />
      <path
         inkscape:connector-curvature="0"
         id="path206"
         d="m 55836,41217.66 -19,-19 -37,-18 h -94 l -38,18 -18,19 -19,38 v 37 l 19,56 225,225 h -244" />
    </g>
    <rect
       style="fill:#828282;fill-opacity:0;stroke:#6b6b6b;stroke-width:104.16676331;stroke-miterlimit:4;stroke-dasharray:none;stroke-opacity:1"
       id="rect2151"
       width="13899.998"
       height="11149.998"
       x="44344.895"
       y="36120.785" />
  </g>
</svg>
