<?xml version="1.0" encoding="UTF-8" standalone="no"?>
<svg
   xmlns:dc="http://purl.org/dc/elements/1.1/"
   xmlns:cc="http://creativecommons.org/ns#"
   xmlns:rdf="http://www.w3.org/1999/02/22-rdf-syntax-ns#"
   xmlns:svg="http://www.w3.org/2000/svg"
   xmlns="http://www.w3.org/2000/svg"
   xmlns:xlink="http://www.w3.org/1999/xlink"
   xmlns:sodipodi="http://sodipodi.sourceforge.net/DTD/sodipodi-0.dtd"
   xmlns:inkscape="http://www.inkscape.org/namespaces/inkscape"
   version="1.1"
   width="5.5in"
   height="8.5in"
   viewBox="0 0 55000.04 85000.081"
   id="svg432"
   sodipodi:docname="fume_extractor_pcb-B.Cu.svg"
   inkscape:version="0.92.3 (2405546, 2018-03-11)">
  <metadata
     id="metadata438">
    <rdf:RDF>
      <cc:Work
         rdf:about="">
        <dc:format>image/svg+xml</dc:format>
        <dc:type
           rdf:resource="http://purl.org/dc/dcmitype/StillImage" />
        <dc:title>SVG Picture created as fume_extractor_pcb-B.Cu.svg date 2018/08/07 14:20:52 </dc:title>
      </cc:Work>
    </rdf:RDF>
  </metadata>
  <defs
     id="defs436" />
  <sodipodi:namedview
     pagecolor="#ffffff"
     bordercolor="#666666"
     borderopacity="1"
     objecttolerance="10"
     gridtolerance="10"
     guidetolerance="10"
     inkscape:pageopacity="0"
     inkscape:pageshadow="2"
     inkscape:window-width="1440"
     inkscape:window-height="837"
     id="namedview434"
     showgrid="false"
     units="in"
     width="5.5in"
     inkscape:zoom="0.51134618"
     inkscape:cx="450.04471"
     inkscape:cy="401.05827"
     inkscape:window-x="-8"
     inkscape:window-y="-8"
     inkscape:window-maximized="1"
     inkscape:current-layer="svg432" />
  <title
     id="title2">SVG Picture created as fume_extractor_pcb-B.Cu.svg date 2018/08/07 14:20:52 </title>
  <desc
     id="desc4">Picture generated by PCBNEW </desc>
  <g
     style="fill:#000000;fill-opacity:1;stroke:#000000;stroke-linecap:round;stroke-linejoin:round;stroke-opacity:1"
     id="g6"
     transform="translate(0,2320.0807)" />
  <g
     style="fill:#000000;fill-opacity:0;stroke:#000000;stroke-width:-0.0003937;stroke-linecap:round;stroke-linejoin:round;stroke-opacity:1"
     id="g8"
     transform="translate(0,2320.0807)" />
  <g
     style="fill:#ffffff;fill-opacity:1;stroke:#ffffff;stroke-width:39.37009811;stroke-linecap:round;stroke-linejoin:round;stroke-opacity:1"
     id="g14"
     transform="translate(0,2320.0807)" />
  <g
     style="fill:#ffffff;fill-opacity:1;stroke:#ffffff;stroke-width:39.37009811;stroke-linecap:round;stroke-linejoin:round;stroke-opacity:1"
     id="g26"
     transform="translate(0,2320.0807)" />
  <g
     style="fill:#ffffff;fill-opacity:1;stroke:#ffffff;stroke-width:39.37009811;stroke-linecap:round;stroke-linejoin:round;stroke-opacity:1"
     id="g32"
     transform="translate(0,2320.0807)" />
  <g
     style="fill:#ffffff;fill-opacity:1;stroke:#ffffff;stroke-width:39.37009811;stroke-linecap:round;stroke-linejoin:round;stroke-opacity:1"
     id="g38"
     transform="translate(0,2320.0807)" />
  <g
     style="fill:#ffffff;fill-opacity:1;stroke:#ffffff;stroke-width:39.37009811;stroke-linecap:round;stroke-linejoin:round;stroke-opacity:1"
     id="g44"
     transform="translate(0,2320.0807)" />
  <g
     style="fill:#ffffff;fill-opacity:1;stroke:#ffffff;stroke-width:629.92102051;stroke-linecap:round;stroke-linejoin:round;stroke-opacity:1"
     id="g46"
     transform="translate(0,2320.0807)" />
  <g
     style="fill:#ffffff;fill-opacity:0;stroke:#ffffff;stroke-width:0;stroke-linecap:round;stroke-linejoin:round;stroke-opacity:1"
     id="g52"
     transform="translate(0,2320.0807)" />
  <g
     style="fill:#ffffff;fill-opacity:1;stroke:#ffffff;stroke-width:629.92102051;stroke-linecap:round;stroke-linejoin:round;stroke-opacity:1"
     id="g58"
     transform="translate(0,2320.0807)" />
  <g
     style="fill:#ffffff;fill-opacity:0;stroke:#ffffff;stroke-width:0;stroke-linecap:round;stroke-linejoin:round;stroke-opacity:1"
     id="g64"
     transform="translate(0,2320.0807)" />
  <g
     style="fill:#ffffff;fill-opacity:1;stroke:#ffffff;stroke-width:669.29101562;stroke-linecap:round;stroke-linejoin:round;stroke-opacity:1"
     id="g70"
     transform="translate(0,2320.0807)" />
  <g
     style="fill:#ffffff;fill-opacity:0;stroke:#ffffff;stroke-width:0;stroke-linecap:round;stroke-linejoin:round;stroke-opacity:1"
     id="g80"
     transform="translate(0,2320.0807)" />
  <g
     style="fill:#ffffff;fill-opacity:1;stroke:#ffffff;stroke-width:669.29101562;stroke-linecap:round;stroke-linejoin:round;stroke-opacity:1"
     id="g86"
     transform="translate(0,2320.0807)" />
  <g
     style="fill:#ffffff;fill-opacity:0;stroke:#ffffff;stroke-width:0;stroke-linecap:round;stroke-linejoin:round;stroke-opacity:1"
     id="g98"
     transform="translate(0,2320.0807)" />
  <g
     style="fill:#ffffff;fill-opacity:1;stroke:#ffffff;stroke-width:750;stroke-linecap:round;stroke-linejoin:round;stroke-opacity:1"
     id="g104"
     transform="translate(0,2320.0807)" />
  <g
     style="fill:#ffffff;fill-opacity:0;stroke:#ffffff;stroke-width:0;stroke-linecap:round;stroke-linejoin:round;stroke-opacity:1"
     id="g112"
     transform="translate(0,2320.0807)" />
  <g
     style="fill:#ffffff;fill-opacity:1;stroke:#ffffff;stroke-width:629.92102051;stroke-linecap:round;stroke-linejoin:round;stroke-opacity:1"
     id="g118"
     transform="translate(0,2320.0807)" />
  <g
     style="fill:#ffffff;fill-opacity:0;stroke:#ffffff;stroke-width:0;stroke-linecap:round;stroke-linejoin:round;stroke-opacity:1"
     id="g136"
     transform="translate(0,2320.0807)" />
  <g
     style="fill:#ffffff;fill-opacity:1;stroke:#ffffff;stroke-width:157.47999573;stroke-linecap:round;stroke-linejoin:round;stroke-opacity:1"
     id="g142"
     transform="translate(0,2320.0807)" />
  <g
     style="fill:#000000;fill-opacity:1;stroke:#000000;stroke-width:100;stroke-linecap:round;stroke-linejoin:round;stroke-opacity:1"
     id="g238"
     transform="translate(0,2320.0807)" />
  <g
     style="fill:#000000;fill-opacity:1;stroke:#000000;stroke-width:393.70098877;stroke-linecap:round;stroke-linejoin:round;stroke-opacity:1"
     id="g240"
     transform="translate(0,2320.0807)" />
  <g
     style="fill:#000000;fill-opacity:1;stroke:#000000;stroke-width:39.37009811;stroke-linecap:round;stroke-linejoin:round;stroke-opacity:1"
     id="g254"
     transform="translate(0,2320.0807)" />
  <g
     style="fill:#000000;fill-opacity:1;stroke:#000000;stroke-width:39.37009811;stroke-linecap:round;stroke-linejoin:round;stroke-opacity:1"
     id="g260"
     transform="translate(0,2320.0807)" />
  <g
     style="fill:#000000;fill-opacity:1;stroke:#000000;stroke-width:39.37009811;stroke-linecap:round;stroke-linejoin:round;stroke-opacity:1"
     id="g266"
     transform="translate(0,2320.0807)" />
  <g
     style="fill:#000000;fill-opacity:1;stroke:#000000;stroke-width:39.37009811;stroke-linecap:round;stroke-linejoin:round;stroke-opacity:1"
     id="g272"
     transform="translate(0,2320.0807)" />
  <g
     style="fill:#000000;fill-opacity:1;stroke:#000000;stroke-width:39.37009811;stroke-linecap:round;stroke-linejoin:round;stroke-opacity:1"
     id="g278"
     transform="translate(0,2320.0807)" />
  <g
     style="fill:#000000;fill-opacity:1;stroke:#000000;stroke-width:39.37009811;stroke-linecap:round;stroke-linejoin:round;stroke-opacity:1"
     id="g284"
     transform="translate(0,2320.0807)" />
  <g
     style="fill:#000000;fill-opacity:1;stroke:#000000;stroke-width:39.37009811;stroke-linecap:round;stroke-linejoin:round;stroke-opacity:1"
     id="g290"
     transform="translate(0,2320.0807)" />
  <g
     style="fill:#000000;fill-opacity:1;stroke:#000000;stroke-width:39.37009811;stroke-linecap:round;stroke-linejoin:round;stroke-opacity:1"
     id="g296"
     transform="translate(0,2320.0807)" />
  <g
     style="fill:#000000;fill-opacity:1;stroke:#000000;stroke-width:39.37009811;stroke-linecap:round;stroke-linejoin:round;stroke-opacity:1"
     id="g302"
     transform="translate(0,2320.0807)" />
  <g
     style="fill:#000000;fill-opacity:1;stroke:#000000;stroke-width:39.37009811;stroke-linecap:round;stroke-linejoin:round;stroke-opacity:1"
     id="g308"
     transform="translate(0,2320.0807)" />
  <g
     style="fill:#000000;fill-opacity:1;stroke:#000000;stroke-width:39.37009811;stroke-linecap:round;stroke-linejoin:round;stroke-opacity:1"
     id="g314"
     transform="translate(0,2320.0807)" />
  <g
     style="fill:#000000;fill-opacity:1;stroke:#000000;stroke-width:39.37009811;stroke-linecap:round;stroke-linejoin:round;stroke-opacity:1"
     id="g320"
     transform="translate(0,2320.0807)" />
  <g
     style="fill:#000000;fill-opacity:1;stroke:#000000;stroke-width:39.37009811;stroke-linecap:round;stroke-linejoin:round;stroke-opacity:1"
     id="g326"
     transform="translate(0,2320.0807)" />
  <g
     style="fill:#000000;fill-opacity:1;stroke:#000000;stroke-width:39.37009811;stroke-linecap:round;stroke-linejoin:round;stroke-opacity:1"
     id="g332"
     transform="translate(0,2320.0807)" />
  <g
     style="fill:#000000;fill-opacity:1;stroke:#000000;stroke-width:39.37009811;stroke-linecap:round;stroke-linejoin:round;stroke-opacity:1"
     id="g338"
     transform="translate(0,2320.0807)" />
  <g
     style="fill:#000000;fill-opacity:1;stroke:#000000;stroke-width:39.37009811;stroke-linecap:round;stroke-linejoin:round;stroke-opacity:1"
     id="g344"
     transform="translate(0,2320.0807)" />
  <g
     style="fill:#000000;fill-opacity:1;stroke:#000000;stroke-width:39.37009811;stroke-linecap:round;stroke-linejoin:round;stroke-opacity:1"
     id="g350"
     transform="translate(0,2320.0807)" />
  <g
     style="fill:#000000;fill-opacity:1;stroke:#000000;stroke-width:39.37009811;stroke-linecap:round;stroke-linejoin:round;stroke-opacity:1"
     id="g356"
     transform="translate(0,2320.0807)" />
  <g
     style="fill:#000000;fill-opacity:1;stroke:#000000;stroke-width:39.37009811;stroke-linecap:round;stroke-linejoin:round;stroke-opacity:1"
     id="g362"
     transform="translate(0,2320.0807)" />
  <g
     style="fill:#000000;fill-opacity:1;stroke:#000000;stroke-width:39.37009811;stroke-linecap:round;stroke-linejoin:round;stroke-opacity:1"
     id="g368"
     transform="translate(0,2320.0807)" />
  <g
     style="fill:#000000;fill-opacity:1;stroke:#000000;stroke-width:39.37009811;stroke-linecap:round;stroke-linejoin:round;stroke-opacity:1"
     id="g374"
     transform="translate(0,2320.0807)" />
  <g
     style="fill:#000000;fill-opacity:1;stroke:#000000;stroke-width:39.37009811;stroke-linecap:round;stroke-linejoin:round;stroke-opacity:1"
     id="g380"
     transform="translate(0,2320.0807)" />
  <g
     style="fill:#000000;fill-opacity:1;stroke:#000000;stroke-width:39.37009811;stroke-linecap:round;stroke-linejoin:round;stroke-opacity:1"
     id="g386"
     transform="translate(0,2320.0807)" />
  <g
     style="fill:#000000;fill-opacity:1;stroke:#000000;stroke-width:39.37009811;stroke-linecap:round;stroke-linejoin:round;stroke-opacity:1"
     id="g392"
     transform="translate(0,2320.0807)" />
  <g
     style="fill:#000000;fill-opacity:1;stroke:#000000;stroke-width:39.37009811;stroke-linecap:round;stroke-linejoin:round;stroke-opacity:1"
     id="g398"
     transform="translate(0,2320.0807)" />
  <g
     style="fill:#000000;fill-opacity:1;stroke:#000000;stroke-width:39.37009811;stroke-linecap:round;stroke-linejoin:round;stroke-opacity:1"
     id="g404"
     transform="translate(0,2320.0807)" />
  <g
     style="fill:#000000;fill-opacity:1;stroke:#000000;stroke-width:39.37009811;stroke-linecap:round;stroke-linejoin:round;stroke-opacity:1"
     id="g410"
     transform="translate(0,2320.0807)" />
  <g
     style="fill:#000000;fill-opacity:1;stroke:#000000;stroke-width:39.37009811;stroke-linecap:round;stroke-linejoin:round;stroke-opacity:1"
     id="g416"
     transform="translate(0,2320.0807)" />
  <g
     style="fill:#000000;fill-opacity:1;stroke:#000000;stroke-width:39.37009811;stroke-linecap:round;stroke-linejoin:round;stroke-opacity:1"
     id="g422"
     transform="translate(0,2320.0807)" />
  <g
     id="g600"
     transform="translate(7537.3006,8963.2765)"
     inkscape:tile-cx="26035.903"
     inkscape:tile-cy="21083.128"
     inkscape:tile-w="18055.067"
     inkscape:tile-h="15305.069"
     inkscape:tile-x0="17008.369"
     inkscape:tile-y0="13430.594">
    <g
       transform="translate(-36464.238,-23143.773)"
       id="g12"
       style="fill:#000000;fill-opacity:1;stroke:#000000;stroke-width:39.37009811;stroke-linecap:round;stroke-linejoin:round;stroke-opacity:1">
      <rect
         id="rect10"
         rx="0"
         height="15265.7"
         width="18015.699"
         y="33742.102"
         x="47992.102" />
    </g>
    <g
       transform="translate(-36464.238,-23143.773)"
       id="g24"
       style="fill:#ffffff;fill-opacity:1;stroke:#ffffff;stroke-width:0;stroke-linecap:round;stroke-linejoin:round;stroke-opacity:1">
      <polyline
         id="polyline16"
         points="55947,38913 55980,38918 56013,38926 56045,38937 56075,38952 56104,38969 56131,38989 56156,39012 56179,39037 56199,39064 56217,39093 56231,39124 56243,39155 56251,39188 56256,39222 56257,39255 56257,39944 56256,39978 56251,40012 56243,40044 56231,40076 56217,40107 56199,40136 56179,40163 56156,40188 56131,40211 56104,40231 56075,40248 56045,40263 56013,40274 55980,40282 55947,40287 55913,40289 55224,40289 55190,40287 55157,40282 55124,40274 55092,40263 55062,40248 55033,40231 55005,40211 54980,40188 54958,40163 54937,40136 54920,40107 54906,40076 54894,40044 54886,40012 54881,39978 54879,39944 54879,39255 54881,39222 54886,39188 54894,39155 54906,39124 54920,39093 54937,39064 54958,39037 54980,39012 55005,38989 55033,38969 55062,38952 55092,38937 55124,38926 55157,38918 55190,38913 55224,38911 55913,38911 55947,38913 "
         style="fill-rule:evenodd" />
      <polyline
         id="polyline18"
         points="54712,37062 54740,37066 54768,37073 54796,37083 54822,37095 54847,37110 54870,37128 54891,37147 54911,37168 54928,37192 54943,37217 54955,37243 54965,37270 54972,37298 54976,37327 54978,37356 54978,38143 54976,38172 54972,38201 54965,38229 54955,38256 54943,38282 54928,38307 54911,38331 54891,38352 54870,38371 54847,38389 54822,38404 54796,38416 54768,38426 54740,38433 54712,38437 54683,38438 54092,38438 54063,38437 54034,38433 54006,38426 53979,38416 53953,38404 53928,38389 53905,38371 53883,38352 53864,38331 53847,38307 53832,38282 53819,38256 53809,38229 53802,38201 53798,38172 53797,38143 53797,37356 53798,37327 53802,37298 53809,37270 53819,37243 53832,37217 53847,37192 53864,37168 53883,37147 53905,37128 53928,37110 53953,37095 53979,37083 54006,37073 54034,37066 54063,37062 54092,37061 54683,37061 54712,37062 "
         style="fill-rule:evenodd" />
      <polyline
         id="polyline20"
         points="56061,38438 56061,37061 57438,37061 57438,38438 56061,38438 "
         style="fill-rule:evenodd" />
      <circle
         id="circle22"
         r="314.961"
         cy="41500"
         cx="56031.5" />
    </g>
    <g
       transform="translate(-36464.238,-23143.773)"
       id="g30"
       style="fill:#ffffff;fill-opacity:1;stroke:#ffffff;stroke-width:0;stroke-linecap:round;stroke-linejoin:round;stroke-opacity:1">
      <circle
         id="circle28"
         r="314.961"
         cy="41500"
         cx="58000" />
    </g>
    <g
       transform="translate(-36464.238,-23143.773)"
       id="g36"
       style="fill:#ffffff;fill-opacity:1;stroke:#ffffff;stroke-width:0;stroke-linecap:round;stroke-linejoin:round;stroke-opacity:1">
      <circle
         id="circle34"
         r="314.961"
         cy="40500"
         cx="61968.5" />
    </g>
    <g
       transform="translate(-36464.238,-23143.773)"
       id="g42"
       style="fill:#ffffff;fill-opacity:1;stroke:#ffffff;stroke-width:0;stroke-linecap:round;stroke-linejoin:round;stroke-opacity:1">
      <circle
         id="circle40"
         r="314.961"
         cy="40500"
         cx="60000" />
    </g>
    <g
       transform="translate(-36464.238,-23143.773)"
       id="g50"
       style="fill:#ffffff;fill-opacity:0;stroke:#ffffff;stroke-width:629.92102051;stroke-linecap:round;stroke-linejoin:round;stroke-opacity:1">
      <path
         inkscape:connector-curvature="0"
         id="path48"
         d="m 58000,44500 v 0" />
    </g>
    <g
       transform="translate(-36464.238,-23143.773)"
       id="g56"
       style="fill:#ffffff;fill-opacity:1;stroke:#ffffff;stroke-width:0;stroke-linecap:round;stroke-linejoin:round;stroke-opacity:1">
      <polyline
         id="polyline54"
         points="54685,44814 54685,44185 55314,44185 55314,44814 54685,44814 "
         style="fill-rule:evenodd" />
    </g>
    <g
       transform="translate(-36464.238,-23143.773)"
       id="g62"
       style="fill:#ffffff;fill-opacity:0;stroke:#ffffff;stroke-width:629.92102051;stroke-linecap:round;stroke-linejoin:round;stroke-opacity:1">
      <path
         inkscape:connector-curvature="0"
         id="path60"
         d="m 55000,43000 v 0" />
    </g>
    <g
       transform="translate(-36464.238,-23143.773)"
       id="g68"
       style="fill:#ffffff;fill-opacity:1;stroke:#ffffff;stroke-width:0;stroke-linecap:round;stroke-linejoin:round;stroke-opacity:1">
      <polyline
         id="polyline66"
         points="58314,42685 58314,43314 57685,43314 57685,42685 58314,42685 "
         style="fill-rule:evenodd" />
    </g>
    <g
       transform="translate(-36464.238,-23143.773)"
       id="g78"
       style="fill:#ffffff;fill-opacity:0;stroke:#ffffff;stroke-width:669.29101562;stroke-linecap:round;stroke-linejoin:round;stroke-opacity:1">
      <path
         inkscape:connector-curvature="0"
         id="path72"
         d="m 51250,44000 v 0" />
      <path
         inkscape:connector-curvature="0"
         id="path74"
         d="m 51250,43000 v 0" />
      <path
         inkscape:connector-curvature="0"
         id="path76"
         d="m 51250,42000 v 0" />
    </g>
    <g
       transform="translate(-36464.238,-23143.773)"
       id="g84"
       style="fill:#ffffff;fill-opacity:1;stroke:#ffffff;stroke-width:0;stroke-linecap:round;stroke-linejoin:round;stroke-opacity:1">
      <polyline
         id="polyline82"
         points="50915,41334 50915,40665 51584,40665 51584,41334 50915,41334 "
         style="fill-rule:evenodd" />
    </g>
    <g
       transform="translate(-36464.238,-23143.773)"
       id="g96"
       style="fill:#ffffff;fill-opacity:0;stroke:#ffffff;stroke-width:669.29101562;stroke-linecap:round;stroke-linejoin:round;stroke-opacity:1">
      <path
         inkscape:connector-curvature="0"
         id="path88"
         d="m 53250,41000 v 0" />
      <path
         inkscape:connector-curvature="0"
         id="path90"
         d="m 53250,42000 v 0" />
      <path
         inkscape:connector-curvature="0"
         id="path92"
         d="m 53250,43000 v 0" />
      <path
         inkscape:connector-curvature="0"
         id="path94"
         d="m 53250,44000 v 0" />
    </g>
    <g
       transform="translate(-36464.238,-23143.773)"
       id="g102"
       style="fill:#ffffff;fill-opacity:1;stroke:#ffffff;stroke-width:0;stroke-linecap:round;stroke-linejoin:round;stroke-opacity:1">
      <polyline
         id="polyline100"
         points="53584,44665 53584,45334 52915,45334 52915,44665 53584,44665 "
         style="fill-rule:evenodd" />
    </g>
    <g
       transform="translate(-36464.238,-23143.773)"
       id="g110"
       style="fill:#ffffff;fill-opacity:0;stroke:#ffffff;stroke-width:750;stroke-linecap:round;stroke-linejoin:round;stroke-opacity:1">
      <path
         inkscape:connector-curvature="0"
         id="path106"
         d="m 61750,38981 v 37" />
      <path
         inkscape:connector-curvature="0"
         id="path108"
         d="m 60750,38981 v 37" />
    </g>
    <g
       transform="translate(-36464.238,-23143.773)"
       id="g116"
       style="fill:#ffffff;fill-opacity:1;stroke:#ffffff;stroke-width:0;stroke-linecap:round;stroke-linejoin:round;stroke-opacity:1">
      <polyline
         id="polyline114"
         points="59375,39393 59375,38606 60125,38606 60125,39393 59375,39393 "
         style="fill-rule:evenodd" />
    </g>
    <g
       transform="translate(-36464.238,-23143.773)"
       id="g134"
       style="fill:#ffffff;fill-opacity:0;stroke:#ffffff;stroke-width:629.92102051;stroke-linecap:round;stroke-linejoin:round;stroke-opacity:1">
      <path
         inkscape:connector-curvature="0"
         id="path120"
         d="m 62500,42250 v 0" />
      <path
         inkscape:connector-curvature="0"
         id="path122"
         d="m 59500,45250 v 0" />
      <path
         inkscape:connector-curvature="0"
         id="path124"
         d="m 62500,43250 v 0" />
      <path
         inkscape:connector-curvature="0"
         id="path126"
         d="m 59500,44250 v 0" />
      <path
         inkscape:connector-curvature="0"
         id="path128"
         d="m 62500,44250 v 0" />
      <path
         inkscape:connector-curvature="0"
         id="path130"
         d="m 59500,43250 v 0" />
      <path
         inkscape:connector-curvature="0"
         id="path132"
         d="m 62500,45250 v 0" />
    </g>
    <g
       transform="translate(-36464.238,-23143.773)"
       id="g140"
       style="fill:#ffffff;fill-opacity:1;stroke:#ffffff;stroke-width:0;stroke-linecap:round;stroke-linejoin:round;stroke-opacity:1">
      <polyline
         id="polyline138"
         points="59185,42564 59185,41935 59814,41935 59814,42564 59185,42564 "
         style="fill-rule:evenodd" />
    </g>
    <g
       transform="translate(-36464.238,-23143.773)"
       id="g186"
       style="fill:#ffffff;fill-opacity:0;stroke:#ffffff;stroke-width:157.47999573;stroke-linecap:round;stroke-linejoin:round;stroke-opacity:1">
      <path
         inkscape:connector-curvature="0"
         id="path144"
         d="M 60500,44250 59500,43250" />
      <path
         inkscape:connector-curvature="0"
         id="path146"
         d="M 62500,44250 H 60500" />
      <path
         inkscape:connector-curvature="0"
         id="path148"
         d="m 58000,41500 v 1500" />
      <path
         inkscape:connector-curvature="0"
         id="path150"
         d="m 59250,43000 250,250" />
      <path
         inkscape:connector-curvature="0"
         id="path152"
         d="m 58000,43000 h 1250" />
      <path
         inkscape:connector-curvature="0"
         id="path154"
         d="m 58000,43000 v 1500" />
      <path
         inkscape:connector-curvature="0"
         id="path156"
         d="m 60011,45761 -197,-197" />
      <path
         inkscape:connector-curvature="0"
         id="path158"
         d="M 62745,45761 H 60011" />
      <path
         inkscape:connector-curvature="0"
         id="path160"
         d="m 59814,45564 -314,-314" />
      <path
         inkscape:connector-curvature="0"
         id="path162"
         d="m 63011,45495 -266,266" />
      <path
         inkscape:connector-curvature="0"
         id="path164"
         d="m 63011,42761 v 2734" />
      <path
         inkscape:connector-curvature="0"
         id="path166"
         d="m 62500,42250 511,511" />
      <path
         inkscape:connector-curvature="0"
         id="path168"
         d="m 62500,41031 -532,-531" />
      <path
         inkscape:connector-curvature="0"
         id="path170"
         d="M 62500,42250 V 41031" />
      <path
         inkscape:connector-curvature="0"
         id="path172"
         d="m 61750,40281 218,219" />
      <path
         inkscape:connector-curvature="0"
         id="path174"
         d="m 61750,39000 v 1281" />
      <path
         inkscape:connector-curvature="0"
         id="path176"
         d="m 54972,45000 28,-28" />
      <path
         inkscape:connector-curvature="0"
         id="path178"
         d="m 55000,44972 v -472" />
      <path
         inkscape:connector-curvature="0"
         id="path180"
         d="m 53250,45000 h 1722" />
      <path
         inkscape:connector-curvature="0"
         id="path182"
         d="M 54554,43000 H 53250" />
      <path
         inkscape:connector-curvature="0"
         id="path184"
         d="m 55000,43000 h -446" />
    </g>
    <g
       transform="translate(-36464.238,-23143.773)"
       id="g200"
       style="fill:#ffffff;fill-opacity:0;stroke:#ffffff;stroke-width:137.79499817;stroke-linecap:round;stroke-linejoin:round;stroke-opacity:1">
      <path
         inkscape:connector-curvature="0"
         id="path188"
         d="m 53584,41665 h 500" />
      <path
         inkscape:connector-curvature="0"
         id="path190"
         d="m 53250,42000 334,-335" />
      <path
         inkscape:connector-curvature="0"
         id="path192"
         d="m 54084,41665 916,-915" />
      <path
         inkscape:connector-curvature="0"
         id="path194"
         d="m 59237,39000 h 513" />
      <path
         inkscape:connector-curvature="0"
         id="path196"
         d="m 57487,40750 1750,-1750" />
      <path
         inkscape:connector-curvature="0"
         id="path198"
         d="m 55000,40750 h 2487" />
    </g>
    <g
       transform="translate(-36464.238,-23143.773)"
       id="g204"
       style="fill:#ffffff;fill-opacity:0;stroke:#ffffff;stroke-width:393.70098877;stroke-linecap:round;stroke-linejoin:round;stroke-opacity:1">
      <path
         inkscape:connector-curvature="0"
         id="path202"
         d="M 53250,42000 H 51250" />
    </g>
    <g
       transform="translate(-36464.238,-23143.773)"
       id="g218"
       style="fill:#ffffff;fill-opacity:0;stroke:#ffffff;stroke-width:157.47999573;stroke-linecap:round;stroke-linejoin:round;stroke-opacity:1">
      <path
         inkscape:connector-curvature="0"
         id="path206"
         d="m 53584,43665 h 1831" />
      <path
         inkscape:connector-curvature="0"
         id="path208"
         d="m 53250,44000 334,-335" />
      <path
         inkscape:connector-curvature="0"
         id="path210"
         d="m 59500,44250 -1000,1000" />
      <path
         inkscape:connector-curvature="0"
         id="path212"
         d="M 57000,45250 55415,43665" />
      <path
         inkscape:connector-curvature="0"
         id="path214"
         d="M 58500,45250 H 57000" />
      <path
         inkscape:connector-curvature="0"
         id="path216"
         d="M 53250,44000 H 51250" />
    </g>
    <g
       transform="translate(-36464.238,-23143.773)"
       id="g232"
       style="fill:#ffffff;fill-opacity:0;stroke:#ffffff;stroke-width:393.70098877;stroke-linecap:round;stroke-linejoin:round;stroke-opacity:1">
      <path
         inkscape:connector-curvature="0"
         id="path220"
         d="m 56750,37750 v -500" />
      <path
         inkscape:connector-curvature="0"
         id="path222"
         d="m 53250,37000 v 4000" />
      <path
         inkscape:connector-curvature="0"
         id="path224"
         d="m 53750,36500 -500,500" />
      <path
         inkscape:connector-curvature="0"
         id="path226"
         d="M 56582,36500 H 53750" />
      <path
         inkscape:connector-curvature="0"
         id="path228"
         d="M 56750,37750 V 36667" />
      <path
         inkscape:connector-curvature="0"
         id="path230"
         d="m 56750,36667 -168,-167" />
    </g>
    <g
       transform="translate(-36464.238,-23143.773)"
       id="g236"
       style="fill:#ffffff;fill-opacity:1;stroke:#ffffff;stroke-width:100;stroke-linecap:round;stroke-linejoin:round;stroke-opacity:1">
      <polyline
         id="polyline234"
         points="63950,46950 50050,46950 50050,45591 50451,45591 50451,45908 50573,46202 50797,46426 51091,46548 51408,46548 51702,46426 51926,46202 52048,45908 52048,45591 51926,45297 51702,45073 51408,44951 51091,44951 50797,45073 50573,45297 50451,45591 50050,45591 50050,41112 50665,41112 50665,41384 50703,41476 50773,41546 50865,41584 50895,41584 50859,41609 50739,41788 50697,42000 50739,42211 50859,42390 51022,42500 50859,42609 50739,42788 50697,43000 50739,43211 50859,43390 51022,43500 50859,43609 50739,43788 50697,44000 50739,44211 50859,44390 51038,44510 51196,44542 51303,44542 51461,44510 51640,44390 51710,44286 52789,44286 52859,44390 52953,44453 52915,44453 52834,44469 52765,44515 52719,44584 52703,44665 52703,45334 52719,45415 52765,45484 52834,45530 52915,45546 53584,45546 53665,45530 53734,45484 53780,45415 53796,45334 53796,45286 54944,45286 54972,45291 55000,45286 55000,45286 55084,45269 55178,45206 55189,45189 55206,45178 55269,45084 55281,45026 55314,45026 55395,45010 55464,44964 55510,44895 55526,44814 55526,44185 55525,44180 56777,45432 56793,45456 56888,45519 56971,45536 56971,45536 56999,45541 57028,45536 58471,45536 58500,45541 58528,45536 58528,45536 58611,45519 58706,45456 58722,45432 58982,45171 58967,45250 59007,45453 59123,45626 59296,45742 59448,45772 59551,45772 59606,45761 59632,45787 59632,45787 59789,45944 59805,45968 59829,45984 59829,45984 59900,46031 59983,46048 59983,46048 60011,46053 60039,46048 62717,46048 62745,46053 62773,46048 62773,46048 62857,46031 62952,45968 62967,45944 63194,45717 63218,45702 63281,45607 63298,45523 63298,45523 63303,45495 63298,45467 63298,42789 63303,42761 63298,42733 63298,42733 63281,42650 63263,42623 63234,42579 63234,42579 63218,42555 63194,42539 63011,42356 63032,42250 62992,42046 62876,41873 62786,41812 62786,41059 62791,41031 62786,41003 62786,41003 62769,40919 62706,40825 62682,40809 62486,40613 62490,40603 62490,40396 62411,40204 62264,40057 62072,39977 62036,39977 62036,39527 62169,39438 62298,39245 62332,39076 62332,38923 62298,38754 62169,38561 61977,38432 61750,38387 61522,38432 61330,38561 61273,38646 61265,38628 61091,38458 60896,38373 60800,38421 60800,38950 60807,38950 60807,39050 60800,39050 60800,39578 60896,39626 61091,39541 61265,39371 61273,39353 61330,39438 61463,39527 61463,40253 61458,40281 61469,40339 61446,40396 61446,40603 61525,40795 61672,40942 61864,41022 62072,41022 62082,41018 62213,41150 62213,41812 62123,41873 62007,42046 61967,42250 62007,42453 62123,42626 62296,42742 62335,42750 62296,42757 62123,42873 62007,43046 61967,43250 62007,43453 62123,43626 62296,43742 62335,43750 62296,43757 62123,43873 62062,43963 60618,43963 60011,43356 60032,43250 59992,43046 59876,42873 59789,42814 59864,42814 59956,42776 60026,42706 60064,42614 60064,42362 60002,42300 59550,42300 59550,42307 59450,42307 59450,42300 58997,42300 58935,42362 58935,42614 58973,42706 58980,42713 58526,42713 58526,42685 58510,42604 58464,42535 58395,42489 58314,42473 58286,42473 58286,41946 58295,41942 58353,41885 58935,41885 58935,42137 58997,42200 59450,42200 59450,41747 59550,41747 59550,42200 60002,42200 60064,42137 60064,41885 60026,41793 59956,41723 59864,41685 59612,41685 59550,41747 59450,41747 59387,41685 59135,41685 59043,41723 58973,41793 58935,41885 58353,41885 58442,41795 58522,41603 58522,41396 58442,41204 58295,41057 58103,40977 57896,40977 57704,41057 57557,41204 57477,41396 57477,41603 57557,41795 57704,41942 57713,41946 57713,42473 57685,42473 57604,42489 57535,42535 57489,42604 57473,42685 57473,43314 57489,43395 57535,43464 57604,43510 57685,43526 57713,43526 57713,44062 57623,44123 57507,44296 57467,44500 57507,44703 57623,44876 57753,44963 57118,44963 55637,43482 55621,43459 55527,43395 55443,43379 55443,43379 55415,43373 55387,43379 55372,43379 55376,43376 55492,43203 55532,43000 55492,42796 55376,42623 55203,42507 55051,42477 54948,42477 54796,42507 54623,42623 54562,42713 53710,42713 53640,42609 53477,42500 53640,42390 53760,42211 53802,42000 53791,41941 54057,41941 54084,41947 54111,41941 54111,41941 54192,41925 54235,41896 55705,41896 55734,41993 55946,42069 56170,42058 56328,41993 56357,41896 56031,41570 55705,41896 54235,41896 54283,41864 54299,41841 54726,41414 55461,41414 55472,41639 55537,41796 55634,41826 55960,41500 56102,41500 56428,41826 56525,41796 56601,41585 56590,41360 56525,41203 56428,41173 56102,41500 55960,41500 55634,41173 55537,41203 55461,41414 54726,41414 55114,41026 55728,41026 55705,41103 56031,41429 56357,41103 56334,41026 57459,41026 57487,41031 57514,41026 57514,41026 57595,41010 57686,40949 57701,40926 57731,40896 59673,40896 59703,40993 59914,41069 60139,41058 60296,40993 60326,40896 60000,40570 59673,40896 57731,40896 58213,40414 59430,40414 59441,40639 59506,40796 59603,40826 59929,40500 60070,40500 60396,40826 60493,40796 60569,40585 60558,40360 60493,40203 60396,40173 60070,40500 59929,40500 59603,40173 59506,40203 59430,40414 58213,40414 58524,40103 59673,40103 60000,40429 60326,40103 60296,40006 60085,39930 59860,39941 59703,40006 59673,40103 58524,40103 59175,39452 59179,39474 59225,39543 59294,39589 59375,39605 60125,39605 60205,39589 60274,39543 60320,39474 60323,39458 60408,39541 60603,39626 60700,39578 60700,39050 60692,39050 60692,38950 60700,38950 60700,38421 60603,38373 60408,38458 60323,38541 60320,38525 60274,38456 60205,38410 60125,38394 59375,38394 59294,38410 59225,38456 59179,38525 59163,38606 59163,38732 59129,38739 59129,38739 59129,38739 59107,38754 59037,38800 59022,38823 57372,40473 56427,40473 56469,40430 56507,40339 56507,39712 56445,39650 55618,39650 55618,39658 55518,39658 55518,39650 54692,39650 54629,39712 54629,40339 54667,40430 54738,40501 54822,40536 54800,40550 54785,40573 53970,41388 53642,41388 53760,41211 53802,41000 53760,40788 53654,40629 53654,38649 53655,38650 53747,38688 54275,38688 54337,38626 54337,37800 54437,37800 54437,38626 54500,38688 54763,38688 54738,38699 54667,38769 54629,38861 54629,39487 54692,39550 55518,39550 55518,38723 55618,38723 55618,39550 56445,39550 56507,39487 56507,38861 56469,38769 56399,38699 56307,38661 55681,38661 55618,38723 55518,38723 55456,38661 55094,38661 55119,38650 55190,38580 55228,38488 55228,37862 55165,37800 54437,37800 54337,37800 54329,37800 54329,37700 54337,37700 54337,37692 54437,37692 54437,37700 55165,37700 55228,37637 55228,37011 55190,36919 55175,36904 55922,36904 55911,36911 55865,36980 55849,37061 55849,38438 55865,38519 55911,38588 55980,38634 56061,38650 57438,38650 57519,38634 57588,38588 57634,38519 57650,38438 57650,37061 57634,36980 57588,36911 57519,36865 57438,36849 57154,36849 57154,36841 61951,36841 61951,37158 62073,37452 62297,37676 62591,37798 62908,37798 63202,37676 63426,37452 63548,37158 63548,36841 63426,36547 63202,36323 62908,36201 62591,36201 62297,36323 62073,36547 61951,36841 57154,36841 57154,36707 57162,36667 57154,36627 57130,36509 57041,36375 57007,36353 56896,36242 56874,36208 56740,36119 56622,36095 56622,36095 56582,36087 56542,36095 53789,36095 53749,36087 53710,36095 53592,36119 53592,36119 53592,36119 53563,36138 53458,36208 53435,36242 52992,36685 52958,36708 52869,36842 52846,36958 52837,37000 52845,37039 52845,40629 52739,40788 52697,41000 52739,41211 52859,41390 53022,41500 52879,41595 51620,41595 51604,41584 51634,41584 51726,41546 51796,41476 51834,41384 51834,41112 51772,41050 51300,41050 51300,41057 51200,41057 51200,41050 50727,41050 50665,41112 50050,41112 50050,40615 50665,40615 50665,40887 50727,40950 51200,40950 51200,40477 51300,40477 51300,40950 51772,40950 51834,40887 51834,40615 51796,40523 51726,40453 51634,40415 51362,40415 51300,40477 51200,40477 51137,40415 50865,40415 50773,40453 50703,40523 50665,40615 50050,40615 50050,35800 63950,35800 63950,46950 "
         style="fill-rule:evenodd" />
    </g>
    <g
       transform="translate(-36464.238,-23143.773)"
       id="g248"
       style="fill:#000000;fill-opacity:0;stroke:#000000;stroke-width:393.70098877;stroke-linecap:round;stroke-linejoin:round;stroke-opacity:1">
      <path
         inkscape:connector-curvature="0"
         id="path242"
         d="m 55175,39600 h 787" />
      <path
         inkscape:connector-curvature="0"
         id="path244"
         d="m 54387,37356 v 787" />
      <path
         inkscape:connector-curvature="0"
         id="path246"
         d="m 56750,37356 v 787" />
    </g>
    <g
       transform="translate(-36464.238,-23143.773)"
       id="g252"
       style="fill:#000000;fill-opacity:1;stroke:#000000;stroke-width:0;stroke-linecap:round;stroke-linejoin:round;stroke-opacity:1">
      <circle
         id="circle250"
         r="157.48"
         cy="41500"
         cx="56031.5" />
    </g>
    <g
       transform="translate(-36464.238,-23143.773)"
       id="g258"
       style="fill:#000000;fill-opacity:1;stroke:#000000;stroke-width:0;stroke-linecap:round;stroke-linejoin:round;stroke-opacity:1">
      <circle
         id="circle256"
         r="157.48"
         cy="41500"
         cx="58000" />
    </g>
    <g
       transform="translate(-36464.238,-23143.773)"
       id="g264"
       style="fill:#000000;fill-opacity:1;stroke:#000000;stroke-width:0;stroke-linecap:round;stroke-linejoin:round;stroke-opacity:1">
      <circle
         id="circle262"
         r="157.48"
         cy="40500"
         cx="61968.5" />
    </g>
    <g
       transform="translate(-36464.238,-23143.773)"
       id="g270"
       style="fill:#000000;fill-opacity:1;stroke:#000000;stroke-width:0;stroke-linecap:round;stroke-linejoin:round;stroke-opacity:1">
      <circle
         id="circle268"
         r="157.48"
         cy="40500"
         cx="60000" />
    </g>
    <g
       transform="translate(-36464.238,-23143.773)"
       id="g276"
       style="fill:#000000;fill-opacity:1;stroke:#000000;stroke-width:0;stroke-linecap:round;stroke-linejoin:round;stroke-opacity:1">
      <circle
         id="circle274"
         r="157.48"
         cy="44500"
         cx="58000" />
    </g>
    <g
       transform="translate(-36464.238,-23143.773)"
       id="g282"
       style="fill:#000000;fill-opacity:1;stroke:#000000;stroke-width:0;stroke-linecap:round;stroke-linejoin:round;stroke-opacity:1">
      <circle
         id="circle280"
         r="157.48"
         cy="44500"
         cx="55000" />
    </g>
    <g
       transform="translate(-36464.238,-23143.773)"
       id="g288"
       style="fill:#000000;fill-opacity:1;stroke:#000000;stroke-width:0;stroke-linecap:round;stroke-linejoin:round;stroke-opacity:1">
      <circle
         id="circle286"
         r="157.48"
         cy="43000"
         cx="55000" />
    </g>
    <g
       transform="translate(-36464.238,-23143.773)"
       id="g294"
       style="fill:#000000;fill-opacity:1;stroke:#000000;stroke-width:0;stroke-linecap:round;stroke-linejoin:round;stroke-opacity:1">
      <circle
         id="circle292"
         r="157.48"
         cy="43000"
         cx="58000" />
    </g>
    <g
       transform="translate(-36464.238,-23143.773)"
       id="g300"
       style="fill:#000000;fill-opacity:1;stroke:#000000;stroke-width:0;stroke-linecap:round;stroke-linejoin:round;stroke-opacity:1">
      <circle
         id="circle298"
         r="196.85001"
         cy="44000"
         cx="51250" />
    </g>
    <g
       transform="translate(-36464.238,-23143.773)"
       id="g306"
       style="fill:#000000;fill-opacity:1;stroke:#000000;stroke-width:0;stroke-linecap:round;stroke-linejoin:round;stroke-opacity:1">
      <circle
         id="circle304"
         r="196.85001"
         cy="43000"
         cx="51250" />
    </g>
    <g
       transform="translate(-36464.238,-23143.773)"
       id="g312"
       style="fill:#000000;fill-opacity:1;stroke:#000000;stroke-width:0;stroke-linecap:round;stroke-linejoin:round;stroke-opacity:1">
      <circle
         id="circle310"
         r="196.85001"
         cy="42000"
         cx="51250" />
    </g>
    <g
       transform="translate(-36464.238,-23143.773)"
       id="g318"
       style="fill:#000000;fill-opacity:1;stroke:#000000;stroke-width:0;stroke-linecap:round;stroke-linejoin:round;stroke-opacity:1">
      <circle
         id="circle316"
         r="196.85001"
         cy="41000"
         cx="51250" />
    </g>
    <g
       transform="translate(-36464.238,-23143.773)"
       id="g324"
       style="fill:#000000;fill-opacity:1;stroke:#000000;stroke-width:0;stroke-linecap:round;stroke-linejoin:round;stroke-opacity:1">
      <circle
         id="circle322"
         r="196.85001"
         cy="41000"
         cx="53250" />
    </g>
    <g
       transform="translate(-36464.238,-23143.773)"
       id="g330"
       style="fill:#000000;fill-opacity:1;stroke:#000000;stroke-width:0;stroke-linecap:round;stroke-linejoin:round;stroke-opacity:1">
      <circle
         id="circle328"
         r="196.85001"
         cy="42000"
         cx="53250" />
    </g>
    <g
       transform="translate(-36464.238,-23143.773)"
       id="g336"
       style="fill:#000000;fill-opacity:1;stroke:#000000;stroke-width:0;stroke-linecap:round;stroke-linejoin:round;stroke-opacity:1">
      <circle
         id="circle334"
         r="196.85001"
         cy="43000"
         cx="53250" />
    </g>
    <g
       transform="translate(-36464.238,-23143.773)"
       id="g342"
       style="fill:#000000;fill-opacity:1;stroke:#000000;stroke-width:0;stroke-linecap:round;stroke-linejoin:round;stroke-opacity:1">
      <circle
         id="circle340"
         r="196.85001"
         cy="44000"
         cx="53250" />
    </g>
    <g
       transform="translate(-36464.238,-23143.773)"
       id="g348"
       style="fill:#000000;fill-opacity:1;stroke:#000000;stroke-width:0;stroke-linecap:round;stroke-linejoin:round;stroke-opacity:1">
      <circle
         id="circle346"
         r="196.85001"
         cy="45000"
         cx="53250" />
    </g>
    <g
       transform="translate(-36464.238,-23143.773)"
       id="g354"
       style="fill:#000000;fill-opacity:1;stroke:#000000;stroke-width:0;stroke-linecap:round;stroke-linejoin:round;stroke-opacity:1">
      <circle
         id="circle352"
         r="216.535"
         cy="39000"
         cx="61750" />
    </g>
    <g
       transform="translate(-36464.238,-23143.773)"
       id="g360"
       style="fill:#000000;fill-opacity:1;stroke:#000000;stroke-width:0;stroke-linecap:round;stroke-linejoin:round;stroke-opacity:1">
      <circle
         id="circle358"
         r="216.535"
         cy="39000"
         cx="60750" />
    </g>
    <g
       transform="translate(-36464.238,-23143.773)"
       id="g366"
       style="fill:#000000;fill-opacity:1;stroke:#000000;stroke-width:0;stroke-linecap:round;stroke-linejoin:round;stroke-opacity:1">
      <circle
         id="circle364"
         r="216.535"
         cy="39000"
         cx="59750" />
    </g>
    <g
       transform="translate(-36464.238,-23143.773)"
       id="g372"
       style="fill:#000000;fill-opacity:1;stroke:#000000;stroke-width:0;stroke-linecap:round;stroke-linejoin:round;stroke-opacity:1">
      <circle
         id="circle370"
         r="157.48"
         cy="42250"
         cx="62500" />
    </g>
    <g
       transform="translate(-36464.238,-23143.773)"
       id="g378"
       style="fill:#000000;fill-opacity:1;stroke:#000000;stroke-width:0;stroke-linecap:round;stroke-linejoin:round;stroke-opacity:1">
      <circle
         id="circle376"
         r="157.48"
         cy="45250"
         cx="59500" />
    </g>
    <g
       transform="translate(-36464.238,-23143.773)"
       id="g384"
       style="fill:#000000;fill-opacity:1;stroke:#000000;stroke-width:0;stroke-linecap:round;stroke-linejoin:round;stroke-opacity:1">
      <circle
         id="circle382"
         r="157.48"
         cy="43250"
         cx="62500" />
    </g>
    <g
       transform="translate(-36464.238,-23143.773)"
       id="g390"
       style="fill:#000000;fill-opacity:1;stroke:#000000;stroke-width:0;stroke-linecap:round;stroke-linejoin:round;stroke-opacity:1">
      <circle
         id="circle388"
         r="157.48"
         cy="44250"
         cx="59500" />
    </g>
    <g
       transform="translate(-36464.238,-23143.773)"
       id="g396"
       style="fill:#000000;fill-opacity:1;stroke:#000000;stroke-width:0;stroke-linecap:round;stroke-linejoin:round;stroke-opacity:1">
      <circle
         id="circle394"
         r="157.48"
         cy="44250"
         cx="62500" />
    </g>
    <g
       transform="translate(-36464.238,-23143.773)"
       id="g402"
       style="fill:#000000;fill-opacity:1;stroke:#000000;stroke-width:0;stroke-linecap:round;stroke-linejoin:round;stroke-opacity:1">
      <circle
         id="circle400"
         r="157.48"
         cy="43250"
         cx="59500" />
    </g>
    <g
       transform="translate(-36464.238,-23143.773)"
       id="g408"
       style="fill:#000000;fill-opacity:1;stroke:#000000;stroke-width:0;stroke-linecap:round;stroke-linejoin:round;stroke-opacity:1">
      <circle
         id="circle406"
         r="157.48"
         cy="45250"
         cx="62500" />
    </g>
    <g
       transform="translate(-36464.238,-23143.773)"
       id="g414"
       style="fill:#000000;fill-opacity:1;stroke:#000000;stroke-width:0;stroke-linecap:round;stroke-linejoin:round;stroke-opacity:1">
      <circle
         id="circle412"
         r="157.48"
         cy="42250"
         cx="59500" />
    </g>
    <g
       transform="translate(-36464.238,-23143.773)"
       id="g420"
       style="fill:#000000;fill-opacity:1;stroke:#000000;stroke-width:0;stroke-linecap:round;stroke-linejoin:round;stroke-opacity:1">
      <circle
         id="circle418"
         r="590.55103"
         cy="37000"
         cx="62750" />
    </g>
    <g
       transform="translate(-36464.238,-23143.773)"
       id="g426"
       style="fill:#000000;fill-opacity:1;stroke:#000000;stroke-width:0;stroke-linecap:round;stroke-linejoin:round;stroke-opacity:1">
      <circle
         id="circle424"
         r="590.55103"
         cy="45750"
         cx="51250" />
    </g>
  </g>
  <g
     style="fill:#000000;fill-opacity:1;stroke:#000000;stroke-width:39.37009811;stroke-linecap:round;stroke-linejoin:round;stroke-opacity:1"
     id="g428"
     transform="translate(0,2320.0807)" />
  <g
     style="fill:#ffffff;fill-opacity:1;stroke:#ffffff;stroke-width:39.37009811;stroke-linecap:round;stroke-linejoin:round;stroke-opacity:1"
     id="g430"
     transform="translate(0,2320.0807)" />
  <use
     x="0"
     y="0"
     inkscape:tiled-clone-of="#g600"
     xlink:href="#g600"
     id="use602"
     transform="translate(5.2448897e-6,1.5734673e-5)"
     width="100%"
     height="100%" />
  <use
     x="0"
     y="0"
     inkscape:tiled-clone-of="#g600"
     xlink:href="#g600"
     transform="translate(5.2448897e-6,15305.069)"
     id="use604"
     width="100%"
     height="100%" />
  <use
     x="0"
     y="0"
     inkscape:tiled-clone-of="#g600"
     xlink:href="#g600"
     transform="translate(5.2448897e-6,30610.137)"
     id="use606"
     width="100%"
     height="100%" />
</svg>
